Coordinates
version=1
nRows=29
nColumns=22
inDegrees=yes

Units are S.I. units (second, meters, Newtons, ...)
If the header above contains a line with 'inDegrees', this indicates whether rotational values are in degrees (yes) or radians (no).

endheader
time	pelvis_tilt	pelvis_list	pelvis_rotation	pelvis_tx	pelvis_ty	pelvis_tz	hip_flexion_r	hip_adduction_r	hip_rotation_r	knee_angle_r	ankle_angle_r	subtalar_angle_r	hip_flexion_l	hip_adduction_l	hip_rotation_l	knee_angle_l	ankle_angle_l	subtalar_angle_l	lumbar_extension	lumbar_bending	lumbar_rotation
      1.38000000	     -2.49955453	     -6.44365177	     17.94211297	      1.05627133	      0.96332895	     -0.31056770	     16.38631078	      4.39234600	    -17.97834114	    -17.32969806	      3.95066930	      1.32247802	      4.06446980	     -8.46453789	     14.18072735	    -33.58800840	     16.18244337	      9.59254569	     -0.58306267	      7.05212357	     -8.39926182
      1.39000000	     -2.44809137	     -6.42847900	     17.88572794	      1.05239015	      0.96312752	     -0.31118999	     16.62281251	      4.26595014	    -17.91771702	    -17.44452266	      3.78126476	      1.38635616	      3.63228154	     -8.49320115	     14.14410875	    -33.99151586	     16.16335983	     10.10679721	     -0.54388183	      7.03790058	     -8.53340555
      1.40000000	     -2.39468266	     -6.42005168	     17.82395291	      1.04839903	      0.96289755	     -0.31184087	     16.87088401	      4.14187883	    -17.86176593	    -17.56733018	      3.59321307	      1.45713010	      3.20673916	     -8.50833304	     14.13423346	    -34.35818219	     16.09123314	     10.58056482	     -0.50805011	      7.03208632	     -8.66029643
      1.41000000	     -2.33388951	     -6.43040434	     17.76035436	      1.04430307	      0.96262343	     -0.31250377	     17.12425184	      4.03610800	    -17.81345141	    -17.69020908	      3.40090093	      1.53658108	      2.79890268	     -8.52608904	     14.14383438	    -34.70274364	     15.97728838	     11.03475087	     -0.47757032	      7.04685658	     -8.79032920
      1.42000000	     -2.26152075	     -6.45079990	     17.69600232	      1.04009319	      0.96231168	     -0.31320763	     17.37907239	      3.93783022	    -17.76799962	    -17.81777069	      3.20142505	      1.61643713	      2.40271193	     -8.53306375	     14.18068478	    -35.02279761	     15.80311072	     11.44314640	     -0.46004520	      7.07806365	     -8.92387246
      1.43000000	     -2.17490410	     -6.49008776	     17.62698874	      1.03578977	      0.96195720	     -0.31391584	     17.63433047	      3.86093419	    -17.72900046	    -17.94964846	      2.99582955	      1.68817146	      2.01441088	     -8.53914888	     14.25778097	    -35.30840995	     15.56550417	     11.80021367	     -0.45421089	      7.12971663	     -9.05200121
      1.44000000	     -2.06888476	     -6.54240703	     17.55055856	      1.03139910	      0.96156178	     -0.31464908	     17.88184739	      3.80087974	    -17.69303679	    -18.08537574	      2.77291350	      1.73473551	      1.62884659	     -8.53174610	     14.37992687	    -35.56362321	     15.24621533	     12.05432733	     -0.46714693	      7.20216134	     -9.17701457
      1.45000000	     -1.95760543	     -6.62639312	     17.45132843	      1.02691800	      0.96109591	     -0.31536238	     18.14908759	      3.77503643	    -17.65309763	    -18.23385293	      2.53095638	      1.75889506	      1.26447865	     -8.52828185	     14.53727259	    -35.78241298	     14.83426098	     12.14838416	     -0.48056482	      7.30590321	     -9.27611012
      1.46000000	     -1.80261310	     -6.69503069	     17.36724110	      1.02235564	      0.96064348	     -0.31614204	     18.36035724	      3.74407379	    -17.60874463	    -18.36377365	      2.27346499	      1.76751829	      0.85459622	     -8.48004342	     14.80679190	    -35.92976837	     14.35467402	     12.30001267	     -0.54577882	      7.40691368	     -9.40850832
      1.47000000	     -1.63505034	     -6.79364410	     17.26017726	      1.01768651	      0.96012410	     -0.31690726	     18.58436643	      3.74688334	    -17.56344841	    -18.50687024	      2.00183951	      1.77116726	      0.46172731	     -8.43926853	     15.09593900	    -36.02908399	     13.80020912	     12.36938582	     -0.62226815	      7.54268694	     -9.51501768
      1.48000000	     -1.44097306	     -6.89869480	     17.15220828	      1.01291082	      0.95958027	     -0.31770681	     18.78843474	      3.76148172	    -17.52069291	    -18.64609173	      1.72677664	      1.77344660	      0.04819727	     -8.38301511	     15.44488045	    -36.04014075	     13.20388788	     12.35364224	     -0.73008268	      7.69310645	     -9.62455020
      1.49000000	     -1.20827073	     -7.01362404	     17.04165746	      1.00807267	      0.95903272	     -0.31853915	     18.95187580	      3.79601295	    -17.50147907	    -18.76935865	      1.47854611	      1.78465020	     -0.42706427	     -8.33091976	     15.84243328	    -35.90901331	     12.62195409	     12.13252308	     -0.87777582	      7.86420937	     -9.71624584
      1.50000000	     -1.00686984	     -7.14778827	     16.92948376	      1.00301469	      0.95837708	     -0.31938130	     19.16906218	      3.83754716	    -17.45522061	    -18.89404270	      1.21029056	      1.84098132	     -0.83187544	     -8.28158214	     16.23594207	    -35.70263761	     12.11852400	     11.85081556	     -1.00164984	      8.04683607	     -9.83086638
      1.51000000	     -0.82175921	     -7.29858554	     16.82160699	      0.99775548	      0.95763546	     -0.32023071	     19.41811223	      3.88626273	    -17.41607334	    -19.01313168	      0.94062902	      1.92570655	     -1.19784610	     -8.25436524	     16.60454850	    -35.39089102	     11.77119972	     11.53189129	     -1.11781193	      8.23957044	     -9.94981915
      1.52000000	     -0.67884213	     -7.45705670	     16.72310730	      0.99224029	      0.95679226	     -0.32108851	     19.72360181	      3.92400121	    -17.38135576	    -19.12199225	      0.63527352	      2.01587168	     -1.49679114	     -8.24665874	     16.92249567	    -34.97240277	     11.63836263	     11.25637394	     -1.20518410	      8.42585426	    -10.08567293
      1.53000000	     -0.58662125	     -7.60329627	     16.63422907	      0.98637788	      0.95583369	     -0.32196799	     20.10344838	      3.92371161	    -17.33392077	    -19.24129066	      0.29291729	      2.08570430	     -1.71877931	     -8.24089424	     17.17242710	    -34.46469094	     11.78828706	     11.09915388	     -1.27332066	      8.58533522	    -10.21752299
      1.54000000	     -0.54430208	     -7.76076395	     16.58216277	      0.98027085	      0.95479662	     -0.32288284	     20.52110665	      3.90741122	    -17.34399766	    -19.30808456	     -0.03856284	      2.21413034	     -1.89510587	     -8.28476049	     17.33807250	    -33.80838820	     12.10280379	     10.66221595	     -1.29505538	      8.73853105	    -10.40604377
      1.55000000	     -0.59374096	     -7.87095869	     16.53469893	      0.97376064	      0.95364907	     -0.32381796	     21.03826957	      3.80695454	    -17.32805266	    -19.36975473	     -0.42838327	      2.32495169	     -1.96845989	     -8.29771688	     17.37433435	    -33.07432099	     12.63980181	     10.40184507	     -1.26754119	      8.81604202	    -10.62211399
      1.56000000	     -0.67430914	     -7.94347384	     16.51335883	      0.96690820	      0.95246949	     -0.32479617	     21.57735888	      3.64829438	    -17.31594965	    -19.40188520	     -0.85646829	      2.43527919	     -2.00700910	     -8.30303739	     17.30871169	    -32.27256503	     13.34477254	     10.21216617	     -1.24706871	      8.84634273	    -10.87603090
      1.57000000	     -0.86624356	     -8.02206891	     16.49487437	      0.95978303	      0.95114741	     -0.32578348	     22.23105852	      3.45162220	    -17.32364141	    -19.40923273	     -1.28174508	      2.63568645	     -1.91024831	     -8.30114988	     17.18149556	    -31.44899636	     14.12296319	      9.92718726	     -1.12043581	      8.84876118	    -11.12461534
      1.58000000	     -1.04710412	     -8.05690496	     16.47501244	      0.95251196	      0.94985706	     -0.32680923	     22.83288739	      3.21391269	    -17.33912045	    -19.35986327	     -1.69743413	      2.92898348	     -1.81548225	     -8.25814147	     17.00798048	    -30.64366937	     14.96446240	      9.64242556	     -1.02950460	      8.80870361	    -11.37259700
      1.59000000	     -1.19475689	     -8.11686792	     16.42709014	      0.94516447	      0.94858307	     -0.32778816	     23.38081125	      3.03140430	    -17.32641505	    -19.25169769	     -2.10364031	      3.23533752	     -1.70000755	     -8.23987454	     16.77705529	    -29.92780321	     15.83833720	      9.38920871	     -0.97661580	      8.80484461	    -11.60699940
      1.60000000	     -1.33308990	     -8.15990317	     16.35217739	      0.93779678	      0.94734030	     -0.32877681	     23.88466796	      2.84198659	    -17.32014382	    -19.10090221	     -2.42158858	      3.71349215	     -1.56380712	     -8.17840209	     16.55482043	    -29.28807526	     16.66813800	      9.04320701	     -0.93740567	      8.78510856	    -11.80334118
      1.61000000	     -1.43479800	     -8.19411330	     16.23780999	      0.93043079	      0.94617331	     -0.32974482	     24.31847040	      2.67403565	    -17.29350273	    -18.90572304	     -2.63196091	      4.32889298	     -1.43458151	     -8.09341696	     16.30966527	    -28.72523450	     17.45274789	      8.61923371	     -0.94327405	      8.76613840	    -11.95140027
      1.62000000	     -1.51438633	     -8.18914862	     16.10590826	      0.92306330	      0.94511626	     -0.33075596	     24.68847403	      2.47858845	    -17.27071840	    -18.67536424	     -2.70057937	      5.13165352	     -1.32009108	     -7.94699980	     16.09342199	    -28.20187297	     18.15046667	      8.10176710	     -0.98118505	      8.71235337	    -12.07124379
      1.63000000	     -1.58811534	     -8.19287777	     15.91882227	      0.91566787	      0.94411819	     -0.33170134	     25.03944163	      2.32580717	    -17.18829701	    -18.42276329	     -2.62211083	      5.87951795	     -1.16027713	     -7.79965110	     15.77984967	    -27.76822738	     18.81717288	      7.59092930	     -1.03170313	      8.67186397	    -12.14592895
      1.64000000	     -1.66143790	     -8.17777240	     15.69342666	      0.90825479	      0.94321106	     -0.33260910	     25.37317130	      2.17656292	    -17.06918926	    -18.16428417	     -2.34083704	      6.62162735	     -0.97568333	     -7.62311216	     15.41669263	    -27.38414802	     19.41978693	      7.04305642	     -1.09347314	      8.60977751	    -12.18640243
      1.65000000	     -1.72300458	     -8.14838733	     15.45731223	      0.90082372	      0.94241879	     -0.33351825	     25.68442623	      2.02427334	    -16.96689050	    -17.91466211	     -1.82272865	      7.32833373	     -0.77427125	     -7.42672385	     15.03343085	    -27.04133186	     19.95174420	      6.44525134	     -1.17298119	      8.53701550	    -12.22441570
      1.66000000	     -1.80282855	     -8.10473380	     15.17529653	      0.89337362	      0.94173252	     -0.33436883	     25.99858702	      1.88894941	    -16.79325280	    -17.65224111	     -1.12795645	      7.85966071	     -0.53388143	     -7.20398007	     14.61159688	    -26.73435779	     20.41917905	      5.85456025	     -1.24348771	      8.44364085	    -12.22136677
